<svg width="1978" height="1209" viewBox="0 0 1978 1209" fill="none" xmlns="http://www.w3.org/2000/svg">
<g clip-path="url(#clip0_496_1352)">
<rect x="27" y="26.7109" width="1924.22" height="1155.84" fill="#232324"/>
<g filter="url(#filter0_f_496_1352)">
<path d="M593.002 1427.08C411.908 1309.43 556.851 869.08 651.959 663.612C686.371 646.297 767.181 636.504 815.119 735.848C875.041 860.03 1046.36 821.665 1247.96 663.524C1449.57 505.384 1874.33 271.003 2001.42 440.302C2128.51 609.601 1994.67 779.53 1803.28 1038.44C1611.89 1297.35 1515.28 1093.41 1313.73 1325.38C1112.18 1557.34 819.37 1574.13 593.002 1427.08Z" fill="#00A3FF"/>
<path d="M1355.48 -46.9455C1589.29 49.3524 1382.64 304.524 1364.61 497.619C1275.33 458.522 1072.72 400.429 976.544 480.83C856.326 581.332 741.691 790.903 522.817 860.142C303.944 929.382 101.626 579.283 132.002 479.713C162.378 380.142 274.213 222.362 260.946 371.917C247.678 521.471 509.586 513.508 782.125 335.119C1054.66 156.729 1121.67 -143.243 1355.48 -46.9455Z" fill="#DB00FF"/>
<path d="M2192.4 365.447C2177.59 517.407 1948.48 687.18 1700.8 849.086C1671.53 838.785 1610.15 792.143 1598.8 687.986C1584.61 557.788 1402.71 441.826 1134.24 439.245C865.764 436.664 827.412 397.859 917.922 140.68C1008.43 -116.499 1193.35 -308.485 1214.35 -254.476C1235.35 -200.468 1571.22 -36.9774 1732.66 65.1242C1894.09 167.226 2207.2 213.488 2192.4 365.447Z" fill="#000AFF"/>
</g>
<g style="mix-blend-mode:color-dodge" filter="url(#filter1_f_496_1352)">
<path d="M892.581 1509.76C697.213 1601.78 399.157 1246.71 274.55 1057.67C277.948 1019.29 312.169 945.435 421.869 956.986C558.994 971.424 616.577 805.578 588.28 550.915C559.983 296.252 584.358 -188.265 795.207 -207.178C1006.06 -226.092 1080.06 -22.835 1199.4 276.2C1318.75 575.235 1094.51 549.99 1185.59 843.474C1276.68 1136.96 1136.79 1394.74 892.581 1509.76Z" fill="#0057FF"/>
<path d="M1382.23 946.311C1387.61 1159.86 1119.89 1087.26 964.513 1139.24C964.252 1056.9 939.992 880.495 845.034 833.615C726.335 775.015 525.255 757.956 397.044 612.446C268.832 466.937 470.329 191.095 557.643 180.584C644.957 170.074 805.058 202.646 684.957 243.438C564.855 284.23 660.401 483.911 891.279 633.638C1122.16 783.365 1376.84 732.76 1382.23 946.311Z" fill="#DB00FF"/>
<path d="M1712.42 -14.1929C1825.58 88.3055 1825.25 373.465 1807.53 668.84C1781.81 686.194 1707.77 707.653 1617.39 654.658C1504.41 588.413 1302.85 665.285 1140.69 879.268C978.531 1093.25 924.511 1100.9 772.027 874.886C619.543 648.873 575.691 385.944 631.569 401.292C687.448 416.639 1018.97 244.505 1197.19 175.792C1375.42 107.079 1599.27 -116.691 1712.42 -14.1929Z" fill="#000AFF"/>
</g>
</g>
<rect x="13.9765" y="13.6874" width="1950.27" height="1181.88" stroke="white" stroke-opacity="0.08" stroke-width="26.047"/>
<defs>
<filter id="filter0_f_496_1352" x="-412.544" y="-703.169" width="3106.26" height="2868.94" filterUnits="userSpaceOnUse" color-interpolation-filters="sRGB">
<feFlood flood-opacity="0" result="BackgroundImageFix"/>
<feBlend mode="normal" in="SourceGraphic" in2="BackgroundImageFix" result="shape"/>
<feGaussianBlur stdDeviation="219.772" result="effect1_foregroundBlur_496_1352"/>
</filter>
<filter id="filter1_f_496_1352" x="-363.705" y="-599.1" width="3008.58" height="2716.04" filterUnits="userSpaceOnUse" color-interpolation-filters="sRGB">
<feFlood flood-opacity="0" result="BackgroundImageFix"/>
<feBlend mode="normal" in="SourceGraphic" in2="BackgroundImageFix" result="shape"/>
<feGaussianBlur stdDeviation="195.353" result="effect1_foregroundBlur_496_1352"/>
</filter>
<clipPath id="clip0_496_1352">
<rect x="27" y="26.7109" width="1924.22" height="1155.84" fill="white"/>
</clipPath>
</defs>
</svg>
